<svg width="17" height="15" viewBox="0 0 17 15" fill="none" xmlns="http://www.w3.org/2000/svg">
<path d="M16.7781 5.19868L12.528 9.18261C12.08 9.60258 11.3333 9.29121 11.3333 8.67144V6.56315C7.06636 6.59157 5.26628 7.59185 6.47018 11.5833C6.60249 12.0219 6.09105 12.3616 5.73216 12.091C4.58209 11.2238 3.54167 9.56508 3.54167 7.89079C3.54167 3.67389 7.01247 2.83709 11.3333 2.8133V0.703483C11.3333 0.0831511 12.0805 -0.22722 12.528 0.192311L16.7781 4.17633C17.0738 4.45357 17.0741 4.92121 16.7781 5.19868ZM11.3333 11.1073V13.125H1.88889V3.75001H3.39162C3.43931 3.74997 3.48651 3.74038 3.53037 3.72178C3.57423 3.70319 3.61385 3.67599 3.64685 3.64181C4.08818 3.18572 4.59829 2.82472 5.15248 2.53802C5.48097 2.36807 5.35925 1.87501 4.98882 1.87501H1.41667C0.634253 1.87501 0 2.5046 0 3.28126V13.5938C0 14.3704 0.634253 15 1.41667 15H11.8056C12.588 15 13.2222 14.3704 13.2222 13.5938V10.992C13.2222 10.7492 12.9803 10.5799 12.7497 10.6609C12.4263 10.7744 12.0801 10.8084 11.7406 10.7598C11.5261 10.7292 11.3333 10.8921 11.3333 11.1073Z" fill="white"/>
</svg>
