<svg width="25" height="25" viewBox="0 0 25 25" fill="none" xmlns="http://www.w3.org/2000/svg">
<g clip-path="url(#clip0)">
<path d="M12.4999 8.47656C10.2801 8.47656 8.47656 10.2801 8.47656 12.4999C8.47656 14.7196 10.2801 16.5232 12.4999 16.5232C14.7196 16.5232 16.5232 14.7196 16.5232 12.4999C16.5232 10.2801 14.7196 8.47656 12.4999 8.47656ZM12.1947 11.3068C11.6952 11.3068 11.279 11.723 11.279 12.2224H9.94715C9.9749 10.9738 10.9738 9.9749 12.1947 9.9749V11.3068Z" fill="#2DB7F5"/>
<path d="M24.7087 11.6678C23.3491 9.97526 18.4933 4.45361 12.5 4.45361C6.50666 4.45361 1.65094 9.97526 0.291343 11.6678C-0.0971143 12.1395 -0.0971143 12.8332 0.291343 13.3326C1.65094 15.0252 6.50666 20.5468 12.5 20.5468C18.4933 20.5468 23.3491 15.0252 24.7087 13.3326C25.0971 12.8609 25.0971 12.1673 24.7087 11.6678ZM12.5 18.3271C9.28135 18.3271 6.67314 15.7189 6.67314 12.5002C6.67314 9.28158 9.28135 6.67337 12.5 6.67337C15.7186 6.67337 18.3269 9.28158 18.3269 12.5002C18.3269 15.7189 15.7186 18.3271 12.5 18.3271Z" fill="#2DB7F5"/>
</g>
<defs>
<clipPath id="clip0">
<rect width="25" height="25" fill="white"/>
</clipPath>
</defs>
</svg>
