<svg width="18" height="18" viewBox="0 0 18 18" fill="none" xmlns="http://www.w3.org/2000/svg">
<path d="M0 0.527484V17.4726C0 17.764 0.235969 18 0.527484 18H2.11799V0H0.527484C0.235969 0 0 0.235969 0 0.527484H0Z" fill="#464646"/>
<path d="M3.17383 18H14.8281V0H3.17383V18ZM12.7097 6.87994C12.7097 6.58842 12.9461 6.35245 13.2372 6.35245C13.5284 6.35245 13.7647 6.58842 13.7647 6.87994V11.1201C13.7647 11.4116 13.5284 11.6475 13.2372 11.6475C12.9461 11.6475 12.7097 11.4116 12.7097 11.1201V6.87994ZM10.5918 6.87994C10.5918 6.58842 10.8278 6.35245 11.1193 6.35245C11.4104 6.35245 11.6468 6.58842 11.6468 6.87994V11.1201C11.6468 11.4116 11.4104 11.6475 11.1193 11.6475C10.8278 11.6475 10.5918 11.4116 10.5918 11.1201V6.87994ZM8.47346 1.58453C8.47346 1.29301 8.70978 1.05704 9.00094 1.05704C9.29211 1.05704 9.52843 1.29301 9.52843 1.58453V2.11409C9.52843 2.40525 9.29211 2.64157 9.00094 2.64157C8.70978 2.64157 8.47346 2.40525 8.47346 2.11409V1.58453ZM8.47346 4.23204C8.47346 3.94088 8.70978 3.70455 9.00094 3.70455C9.29211 3.70455 9.52843 3.94088 9.52843 4.23204V4.76163C9.52843 5.0528 9.29211 5.28912 9.00094 5.28912C8.70978 5.28912 8.47346 5.0528 8.47346 4.76163V4.23204ZM8.47346 6.87994C8.47346 6.58842 8.70978 6.35245 9.00094 6.35245C9.29211 6.35245 9.52843 6.58842 9.52843 6.87994V11.1201C9.52843 11.4116 9.29211 11.6475 9.00094 11.6475C8.70978 11.6475 8.47346 11.4116 8.47346 11.1201V6.87994ZM8.47346 13.2384C8.47346 12.9472 8.70978 12.7109 9.00094 12.7109C9.29211 12.7109 9.52843 12.9472 9.52843 13.2384V13.7679C9.52843 14.0591 9.29211 14.2954 9.00094 14.2954C8.70978 14.2954 8.47346 14.0591 8.47346 13.7679V13.2384ZM8.47346 15.8859C8.47346 15.5947 8.70978 15.3584 9.00094 15.3584C9.29211 15.3584 9.52843 15.5947 9.52843 15.8859V16.4155C9.52843 16.707 9.29211 16.943 9.00094 16.943C8.70978 16.943 8.47346 16.707 8.47346 16.4155V15.8859ZM6.35515 6.87994C6.35515 6.58842 6.59147 6.35245 6.88264 6.35245C7.17415 6.35245 7.41012 6.58842 7.41012 6.87994V11.1201C7.41012 11.4116 7.17415 11.6475 6.88264 11.6475C6.59147 11.6475 6.35515 11.4116 6.35515 11.1201V6.87994ZM4.2372 6.87994C4.2372 6.58842 4.47352 6.35245 4.76468 6.35245C5.05585 6.35245 5.29217 6.58842 5.29217 6.87994V11.1201C5.29217 11.4116 5.05585 11.6475 4.76468 11.6475C4.47352 11.6475 4.2372 11.4116 4.2372 11.1201V6.87994Z" fill="#464646"/>
<path d="M17.4733 0H15.8828V18H17.4733C17.7648 18 18.0008 17.764 18.0008 17.4725V0.527484C18.0008 0.235969 17.7648 0 17.4733 0V0Z" fill="#464646"/>
</svg>
